<svg width="0" height="0" class="hidden">
  <symbol xmlns="http://www.w3.org/2000/svg" viewBox="0 0 38 38" id="volume-off">
    <path d="M28.375 19c0-3.688-2.125-6.854-5.208-8.396v4.604l5.104 5.104c.062-.416.104-.854.104-1.312zm5.208 0c0 1.958-.416 3.792-1.125 5.5l3.146 3.146A18.326 18.326 0 0037.75 19c0-8.917-6.23-16.375-14.583-18.27v4.29c6.02 1.793 10.416 7.376 10.416 13.98zM2.896.25L.25 2.896l9.854 9.854H.25v12.5h8.333L19 35.667V21.646l8.854 8.854c-1.396 1.083-2.958 1.938-4.687 2.458v4.292c2.875-.646 5.479-1.98 7.687-3.77l4.25 4.27 2.646-2.646L19 16.354 2.896.25zM19 2.333l-4.354 4.354L19 11.043v-8.71z"></path>
  </symbol>
  <symbol xmlns="http://www.w3.org/2000/svg" viewBox="0 0 38 38" id="volume">
    <path d="M.25 12.75v12.5h8.333L19 35.667V2.333L8.583 12.75H.25zM28.375 19c0-3.687-2.125-6.854-5.208-8.396v16.771A9.32 9.32 0 0028.375 19zM23.167.73v4.29c6.02 1.793 10.416 7.376 10.416 13.98s-4.395 12.188-10.416 13.98v4.29C31.52 35.376 37.75 27.918 37.75 19S31.52 2.625 23.167.73z"></path>
  </symbol>
  <symbol fill="" xmlns="http://www.w3.org/2000/svg" viewBox="0 0 100 145" id="marvel-logo">
    <path fill="#EC1D24" d="M0 0h100v144.444H0z"></path>
    <path d="M2.778 0H0v2.778h2.778V0z" fill="#EC1D24"></path>
    <path d="M87.5 133.333V11.111H59.142L49.03 74.264 39.172 11.11h-28.06v122.222h22.221v-58.91l9.936 58.91h11.748l9.91-58.91v58.91H87.5z" fill="#FEFEFE"></path>
  </symbol>
  <symbol fill="" xmlns="http://www.w3.org/2000/svg" viewBox="0 0 20 21" id="facebook">
    <path d="M19.2.569H.8c-.443 0-.8.352-.8.789v18.147c0 .436.357.789.8.789h18.4c.442 0 .8-.353.8-.79V1.359a.794.794 0 00-.8-.79zm-2.31 5.757h-1.598c-1.252 0-1.495.587-1.495 1.45v1.9h2.99l-.39 2.977h-2.6v7.64H10.68v-7.638H8.073V9.677h2.607V7.482c0-2.547 1.578-3.935 3.883-3.935 1.104 0 2.052.081 2.33.118v2.66h-.003z"></path>
  </symbol>
  <symbol fill="" xmlns="http://www.w3.org/2000/svg" viewBox="0 0 20 17" id="twitter">
    <path d="M20 2.445a8.31 8.31 0 01-2.36.626A4.043 4.043 0 0019.442.842a8.16 8.16 0 01-2.6.977 4.09 4.09 0 00-1.363-.946A4.138 4.138 0 0013.847.54c-2.271 0-4.098 1.816-4.098 4.044 0 .313.038.626.1.927A11.702 11.702 0 011.4 1.281 3.972 3.972 0 00.84 3.32a4.03 4.03 0 001.827 3.37 4.178 4.178 0 01-1.853-.515v.05c0 1.965 1.408 3.594 3.285 3.968-.352.09-.715.137-1.079.138a5.52 5.52 0 01-.774-.062c.52 1.603 2.031 2.766 3.832 2.804a8.287 8.287 0 01-5.088 1.73 8.49 8.49 0 01-.99-.05 11.724 11.724 0 006.295 1.813c7.537 0 11.662-6.158 11.662-11.504 0-.176 0-.35-.012-.526A8.763 8.763 0 0020 2.445z"></path>
  </symbol>
  <symbol fill="" xmlns="http://www.w3.org/2000/svg" viewBox="0 0 20 21" id="instagram">
    <path d="M17.778.569H2.222C1 .569 0 1.555 0 2.76v15.342c0 1.207 1 2.192 2.222 2.192h15.556C19 20.294 20 19.309 20 18.102V2.76c0-1.205-1-2.19-2.222-2.19zM9.982 16.484c1.632 0 3.197-.64 4.351-1.779a6.028 6.028 0 001.803-4.291c0-.37-.048-.728-.115-1.079h1.757v7.908a.747.747 0 01-.226.536.768.768 0 01-.544.22H2.992a.775.775 0 01-.544-.22.755.755 0 01-.226-.536V9.335h1.721a5.722 5.722 0 00-.115 1.079 6.03 6.03 0 001.803 4.292 6.2 6.2 0 004.351 1.778zm-3.845-6.07c0-.498.1-.992.292-1.452a3.79 3.79 0 01.834-1.23 3.85 3.85 0 011.248-.822 3.892 3.892 0 014.19.822 3.749 3.749 0 010 5.364 3.873 3.873 0 01-2.719 1.11c-1.02 0-1.998-.4-2.719-1.11a3.767 3.767 0 01-1.126-2.682zm10.87-4.366h-1.794a.777.777 0 01-.543-.223.755.755 0 01-.226-.535V3.518c0-.42.345-.758.768-.758h1.795c.426 0 .77.339.77.758v1.77c0 .418-.344.76-.77.76z"></path>
  </symbol>
  <symbol fill="" xmlns="http://www.w3.org/2000/svg" viewBox="0 0 12 21" id="tumblr">
    <path d="M7.983 20.294c-3.007 0-5.249-1.526-5.249-5.178V9.27H0V6.102c3.009-.77 4.268-3.324 4.412-5.533h3.123v5.02h3.645v3.68H7.535v5.092c0 1.526.78 2.053 2.025 2.053h1.765v3.88H7.983z"></path>
  </symbol>
  <symbol fill="" xmlns="http://www.w3.org/2000/svg" viewBox="0 0 20 15" id="youtube">
    <path d="M19.583 3.138a2.465 2.465 0 00-.648-1.106 2.515 2.515 0 00-1.12-.64C16.255.978 10 .978 10 .978s-6.254 0-7.815.412c-.424.112-.81.333-1.12.64a2.46 2.46 0 00-.648 1.105C0 4.676 0 7.891 0 7.891s0 3.214.417 4.753a2.49 2.49 0 001.768 1.745c1.56.414 7.815.414 7.815.414s6.255 0 7.815-.414a2.486 2.486 0 001.768-1.745C20 11.104 20 7.89 20 7.89s0-3.215-.417-4.753zM8.013 10.84v-5.9l5.179 2.928-5.179 2.972z"></path>
  </symbol>
  <symbol fill="" xmlns="http://www.w3.org/2000/svg" viewBox="0 0 20 20" id="pinterest">
    <path d="M10 .02C4.475.02 0 4.434 0 9.88c0 4.178 2.635 7.75 6.356 9.187-.088-.78-.166-1.98.034-2.83.182-.77 1.173-4.903 1.173-4.903s-.3-.592-.3-1.465c0-1.37.807-2.394 1.81-2.394.854 0 1.266.631 1.266 1.389 0 .847-.547 2.111-.828 3.284-.235.981.5 1.782 1.48 1.782 1.777 0 3.144-1.848 3.144-4.516 0-2.362-1.72-4.012-4.177-4.012-2.845 0-4.516 2.104-4.516 4.28 0 .846.331 1.755.745 2.25a.295.295 0 01.069.282c-.076.311-.245.982-.277 1.119-.044.18-.145.219-.336.132-1.248-.574-2.029-2.374-2.029-3.821 0-3.111 2.292-5.968 6.608-5.968 3.469 0 6.165 2.437 6.165 5.696 0 3.4-2.174 6.134-5.19 6.134-1.013 0-1.965-.519-2.292-1.132l-.623 2.344c-.225.857-.835 1.93-1.242 2.586.959.292 1.957.44 2.96.44 5.523 0 10-4.416 10-9.863C20 4.436 15.522.02 10 .02z"></path>
  </symbol>
  <symbol fill="" xmlns="http://www.w3.org/2000/svg" viewBox="0 0 20 18" id="snapchat">
    <path d="M9.811.005c.796 0 3.495.22 4.77 3.031.425.946.323 2.554.24 3.845l-.003.046c-.01.144-.018.274-.024.404.1.052.21.077.322.071.241-.012.53-.094.831-.237a.819.819 0 01.373-.083c.146 0 .29.023.41.07.36.12.59.38.59.666.012.356-.314.665-.976.926-.07.022-.169.06-.276.094-.363.108-.917.285-1.073.643-.072.178-.049.415.098.687l.012.013c.048.107 1.228 2.756 3.854 3.184a.403.403 0 01.246.14.392.392 0 01.091.264.5.5 0 01-.036.178c-.193.451-1.023.784-2.53 1.007-.047.072-.096.298-.132.453-.022.142-.06.285-.107.438-.06.215-.217.32-.446.32h-.024a2.486 2.486 0 01-.433-.058 4.866 4.866 0 00-1.756-.047c-.483.083-.904.368-1.386.7-.687.475-1.469 1.022-2.649 1.022-.048 0-.096-.012-.146-.012h-.119c-1.18 0-1.95-.535-2.637-1.022-.48-.333-.89-.617-1.373-.7a5.595 5.595 0 00-.745-.06c-.435 0-.77.071-1.023.118-.17.035-.314.058-.435.058a.455.455 0 01-.296-.081.443.443 0 01-.174-.25c-.048-.153-.07-.31-.107-.45-.038-.145-.085-.391-.133-.452-1.543-.177-2.373-.51-2.565-.973A.461.461 0 010 13.78a.39.39 0 01.09-.265.4.4 0 01.247-.139c2.625-.428 3.805-3.076 3.854-3.187l.013-.023c.145-.273.18-.513.096-.69-.156-.344-.71-.521-1.07-.64a1.775 1.775 0 01-.279-.095c-.89-.345-1.01-.738-.962-1.01.072-.379.541-.628.94-.628a.81.81 0 01.307.059c.337.153.635.237.888.237a.75.75 0 00.373-.083l-.04-.452c-.08-1.29-.183-2.895.246-3.836C5.94.231 8.633.016 9.427.016l.335-.01h.05z"></path>
  </symbol>
  <symbol fill="none" xmlns="http://www.w3.org/2000/svg" viewBox="0 0 20 20" id="filter">
    <path d="M1 2a1 1 0 011-1h16a1 1 0 011 1v2.586a1 1 0 01-.293.707l-6.414 6.414a1 1 0 00-.293.707V15l-4 4v-6.586a1 1 0 00-.293-.707L1.293 5.293A1 1 0 011 4.586V2z" stroke="" stroke-width="2" stroke-linecap="round" stroke-linejoin="round"></path>
  </symbol>
  <symbol fill="" xmlns="http://www.w3.org/2000/svg" viewBox="0 0 16 16" id="arrow-up">
    <path fill-rule="evenodd" clip-rule="evenodd" d="M8 15A7 7 0 108 1a7 7 0 000 14zm0 1A8 8 0 108-.001 8 8 0 008 16z" ></path>
    <path fill-rule="evenodd" clip-rule="evenodd" d="M4.646 8.354a.5.5 0 00.708 0L8 5.707l2.646 2.647a.5.5 0 10.708-.708l-3-3a.5.5 0 00-.708 0l-3 3a.5.5 0 000 .708z" ></path>
    <path fill-rule="evenodd" clip-rule="evenodd" d="M8 11.5a.5.5 0 00.5-.5V6a.5.5 0 10-1 0v5a.5.5 0 00.5.5z" ></path>
  </symbol>
</svg>